<svg xmlns="http://www.w3.org/2000/svg" width="81" height="20" fill="none"><path fill="#0a77ff" fill-rule="evenodd" d="M16.906 19.5c1.753-1.496 2.9-3.777 2.9-6.41 0-4.697-3.649-8.272-7.869-8.272S4.068 8.393 4.068 13.09c0 2.634 1.148 4.915 2.901 6.411H1.736A12.6 12.6 0 0 1 0 13.09C0 6.273 5.345.75 11.937.75c6.593 0 11.938 5.524 11.938 12.34 0 2.347-.635 4.542-1.736 6.41z" clip-rule="evenodd"/><path fill="#0a77ff" d="M27.183 19.5V5.668h4.123l.108 1.682h.244a3.2 3.2 0 0 1 .95-1.112 3.5 3.5 0 0 1 1.329-.597 6.3 6.3 0 0 1 1.573-.19q1.626 0 2.468.461.84.435 1.193 1.438h.244q.407-.704 1.003-1.112a3.5 3.5 0 0 1 1.33-.597 6.6 6.6 0 0 1 1.6-.19q1.763 0 2.603.624.868.624 1.14 1.817.297 1.194.297 2.956V19.5H43.05v-7.323q0-1.111-.081-1.735-.055-.65-.217-.95a.67.67 0 0 0-.515-.352 4.2 4.2 0 0 0-.923-.082q-.623 0-1.003.163-.38.135-.57.488-.19.352-.244.977-.027.624-.027 1.6V19.5h-4.366v-7.323q0-1.111-.055-1.735-.054-.65-.244-.95a.67.67 0 0 0-.515-.352q-.325-.082-.895-.082-.624 0-1.003.163-.38.135-.57.488t-.244 1.004q-.054.624-.054 1.573V19.5zm23.599 0V5.668h4.122l.109 1.682h.244a3.3 3.3 0 0 1 1.003-1.112q.597-.434 1.356-.597a6.8 6.8 0 0 1 1.655-.19q1.383 0 2.196.353.84.353 1.275 1.03.435.679.57 1.682.162 1.004.162 2.332V19.5h-4.366v-7.323q0-1.111-.054-1.735-.055-.65-.245-.95-.19-.297-.596-.352-.38-.082-1.03-.082-.679 0-1.113.163-.406.135-.623.488-.19.353-.272 1.004-.054.624-.054 1.573V19.5zm22.478.217q-1.953 0-3.227-.244-1.275-.244-2.034-.76a3.47 3.47 0 0 1-1.112-1.383q-.354-.84-.461-2.007a40 40 0 0 1-.082-2.712q0-1.87.163-3.227.19-1.356.814-2.224t1.925-1.275q1.33-.434 3.58-.434 1.818 0 2.956.272 1.14.244 1.79.786a2.7 2.7 0 0 1 .95 1.356q.297.84.38 2.034.08 1.167.08 2.712v1.058h-8.326q0 .922.082 1.492.081.542.434.813.352.272 1.085.38.732.081 2.034.081.515 0 1.22-.027t1.465-.081q.786-.055 1.464-.109v3.038q-.597.136-1.464.244-.841.108-1.817.163-.977.054-1.899.054m1.627-7.865v-.434q0-.976-.108-1.546-.081-.57-.326-.84a.97.97 0 0 0-.623-.38 5.4 5.4 0 0 0-1.031-.082q-.705 0-1.14.109a.97.97 0 0 0-.623.38q-.217.298-.298.867-.082.57-.082 1.492h4.692z"/></svg>